<svg width="426" height="380" viewBox="0 0 426 380" fill="none" xmlns="http://www.w3.org/2000/svg">
<path fill-rule="evenodd" clip-rule="evenodd" d="M5.37125 169.614C-1.79042 182.018 -1.79041 197.301 5.37125 209.705L91.7244 359.273C98.886 371.678 112.121 379.319 126.445 379.319H299.151C313.474 379.319 326.71 371.678 333.871 359.273L420.224 209.705C427.386 197.301 427.386 182.018 420.224 169.614L333.871 20.0458C326.71 7.6414 313.474 0 299.151 0H126.445C112.121 0 98.886 7.64141 91.7244 20.0458L5.37125 169.614Z" fill="white"/>
<path d="M279.728 40.8517C294.728 40.8517 300.011 44.3516 306.635 55.8517L374.891 174.352C378.203 180.102 374.891 185.852 366.728 185.852H230.728C220.728 185.852 212.944 181.852 208.912 174.852L140.656 56.3517C135.728 47.7961 139.228 40.8203 150.728 40.8517H279.728Z" fill="#1A1A1A"/>
</svg>
